<?xml version="1.0" standalone="no"?>
<!DOCTYPE svg PUBLIC "-//W3C//DTD SVG 20010904//EN"
 "http://www.w3.org/TR/2001/REC-SVG-20010904/DTD/svg10.dtd">
<svg version="1.0" xmlns="http://www.w3.org/2000/svg"
 width="444.000000pt" height="444.000000pt" viewBox="0 0 444.000000 444.000000"
 preserveAspectRatio="xMidYMid meet">

<g transform="translate(0.000000,444.000000) scale(0.100000,-0.100000)"
fill="#FEFEFE" stroke="none">
<path d="M2775 3108 c-39 -14 -123 -77 -175 -130 l-40 -42 -312 -13 c-311 -14
-462 -12 -694 8 -86 7 -138 7 -182 -1 -236 -43 -444 -197 -558 -417 -23 -44
-57 -86 -99 -125 -114 -104 -157 -195 -185 -388 -23 -159 -69 -645 -62 -652
16 -16 71 52 90 112 7 19 19 116 27 215 37 450 64 535 149 480 18 -12 25 -28
30 -73 4 -31 14 -84 22 -116 14 -54 14 -85 -1 -320 -16 -275 -40 -527 -54
-586 -5 -19 -16 -61 -25 -92 -10 -32 -23 -102 -30 -155 l-12 -98 -332 -3 -332
-2 0 -355 0 -355 2220 0 2220 0 0 355 0 355 -368 0 -369 0 -18 103 c-22 118
-22 162 -11 658 l9 366 -69 23 c-61 21 -79 34 -160 115 -115 114 -150 165
-134 194 24 45 89 15 172 -81 96 -112 190 -171 182 -115 -2 12 -11 74 -19 137
-65 472 -189 697 -431 780 -31 11 -71 33 -90 49 -43 38 -154 111 -219 143 -63
32 -102 39 -140 26z m357 -1027 c5 -13 190 -211 198 -211 3 0 14 16 23 36 10
19 22 34 29 32 6 -2 24 -37 41 -78 l29 -75 9 -314 c4 -173 13 -346 19 -386 6
-39 31 -131 55 -205 25 -74 45 -142 45 -152 0 -17 -18 -18 -325 -18 -253 0
-325 3 -325 13 0 6 -9 95 -21 197 -13 123 -23 303 -29 540 -5 195 -12 403 -16
462 l-7 107 49 -15 c27 -8 75 -15 107 -16 63 -1 80 11 91 65 5 26 21 36 28 18z
m-903 -683 c1 -106 -1 -304 -5 -440 l-7 -248 -333 0 -334 0 -34 47 c-19 26
-49 77 -68 113 l-33 65 1 150 c0 137 2 157 28 230 15 44 31 83 35 88 4 4 48
12 97 17 259 29 440 73 569 139 33 16 65 30 71 31 8 0 12 -57 13 -192z m350
-268 c6 -58 15 -166 21 -240 6 -74 13 -145 16 -157 4 -22 1 -23 -57 -23 l-61
0 7 213 c8 244 20 423 31 452 10 24 28 -82 43 -245z m-1440 5 c16 -49 20 -93
23 -243 l3 -182 -92 0 c-91 0 -93 0 -99 26 -10 40 2 275 17 313 6 19 32 70 57
114 44 78 45 79 58 56 7 -13 22 -51 33 -84z"/>
</g>
</svg>
